<?xml version="1.0" encoding="utf-8"?>
<!-- Generator: Adobe Illustrator 21.1.0, SVG Export Plug-In . SVG Version: 6.00 Build 0)  -->
<svg  width="18" height="18" version="1.1" id="Layer_1" xmlns="http://www.w3.org/2000/svg" xmlns:xlink="http://www.w3.org/1999/xlink" x="0px" y="0px"
	 viewBox="0 0 21 18.8" style="enable-background:new 0 0 21 18.8;" xml:space="preserve">
<style type="text/css">
	.st0{fill:#525252;}
</style>
<title>replay</title>
<desc>Created with Sketch.</desc>
<path class="st0" d="M13.6,3.1H6.9c-3.6,0-6.6,2.8-6.6,6.3s3,6.3,6.6,6.3v-1c-3.1,0-5.6-2.4-5.6-5.3c0-3,2.5-5.3,5.6-5.3h6.7
	c3.1,0,5.6,2.4,5.6,5.3c0,3-2.5,5.3-5.6,5.3h-3.1l2.1-2.1l-0.7-0.7l-3.4,3.3l3.4,3.3l0.7-0.7l-2.2-2h3.1c3.6,0,6.6-2.8,6.6-6.3
	C20.2,5.9,17.2,3.1,13.6,3.1z"/>
</svg>
