<?xml version="1.0" encoding="utf-8"?>
<!-- Generator: Adobe Illustrator 21.1.0, SVG Export Plug-In . SVG Version: 6.00 Build 0)  -->
<svg version="1.1" id="Layer_1" xmlns="http://www.w3.org/2000/svg" xmlns:xlink="http://www.w3.org/1999/xlink" x="0px" y="0px"
	 viewBox="0 0 11 12" style="enable-background:new 0 0 11 12;margin: 0 5px 0 0;" xml:space="preserve" width="15px" height="15px">
<style type="text/css">
	.st0{fill:#525252;}
</style>
<title>total_time</title>
<desc>Created with Sketch.</desc>
<g>
	<path class="st0" d="M5.4,0.5c-2.9,0-5.2,2.4-5.2,5.4c0,3,2.3,5.4,5.2,5.4s5.2-2.4,5.2-5.4C10.6,2.9,8.2,0.5,5.4,0.5z M5.4,10.3
		c-2.3,0-4.2-2-4.2-4.4c0-2.4,1.9-4.4,4.2-4.4s4.2,2,4.2,4.4C9.6,8.3,7.7,10.3,5.4,10.3z"/>
	<polygon class="st0" points="5.9,2.8 4.9,2.8 4.9,6.2 7.7,7.8 8.2,6.9 5.9,5.6 	"/>
</g>
</svg>
